<?xml version="1.0" encoding="UTF-8" standalone="no"?>
<svg width="640px" height="1140px" viewBox="0 0 640 1140" version="1.1" xmlns="http://www.w3.org/2000/svg" xmlns:xlink="http://www.w3.org/1999/xlink" xmlns:sketch="http://www.bohemiancoding.com/sketch/ns">
    <!-- Generator: Sketch 3.0.4 (8054) - http://www.bohemiancoding.com/sketch -->
    <title>Artboard 3gyro</title>
    <desc>Created with Sketch.</desc>
    <defs></defs>
    <g id="Page-1" stroke="none" stroke-width="1" fill="none" fill-rule="evenodd" sketch:type="MSPage">
        <g id="Artboard-3" sketch:type="MSArtboardGroup">
            <g id="iPhone-5S-(black)-5" sketch:type="MSLayerGroup" transform="translate(0.000000, -3.000000)">
                <g id="Screens">
                    <g id="Lock-Screen">
                        <g id="Not-linen">
                            <g id="Group">
                                <rect id="100%-black" stroke="#4A4A4A" sketch:type="MSShapeGroup" x="0" y="0" width="640" height="1136"></rect>
                                <text id="VIRGIN" fill="#4A4A4A" sketch:type="MSTextLayer" font-family="Helvetica Neue" font-size="28" font-weight="normal">
                                    <tspan x="102" y="34" fill="#FFFFFF">VIRGIN</tspan>
                                </text>
                                <path d="M224.489025,17.0556712 C229.500104,17.0556712 234.067017,18.9612055 237.568703,22.0858082 L240,19.3149589 C235.852722,15.5985753 230.436211,13 224.489025,13 C218.550877,13 213.142113,15.5906849 209,19.2952329 L211.426132,22.0700274 C214.925236,18.9546301 219.484402,17.0556712 224.489025,17.0556712 Z M224.489025,25.0539178 C227.492315,25.0539178 230.236078,26.1796164 232.352326,28.033863 L234.924362,25.1012603 C232.125078,22.6210411 228.483944,21.0008767 224.489025,21.0008767 C220.501853,21.0008767 216.863301,22.6170959 214.0666,25.0894247 L216.634762,28.0259726 C218.749719,26.1756712 221.489608,25.0539178 224.489025,25.0539178 Z M229.779,30.9664658 C228.347078,29.7395068 226.50327,28.8899726 224.487734,28.8899726 C222.476071,28.8899726 220.634845,29.7381918 219.202924,30.9598904 L224.487734,37 L229.779,30.9664658 L229.779,30.9664658 Z" id="Wifi" fill="#4A4A4A" sketch:type="MSShapeGroup"></path>
                                <text id="82%" fill="#4A4A4A" sketch:type="MSTextLayer" font-family="Helvetica Neue" font-size="28" font-weight="260">
                                    <tspan x="489" y="34" fill="#FFFFFF">82%</tspan>
                                </text>
                                <rect id="Battery" stroke="#4A4A4A" sketch:type="MSShapeGroup" x="554" y="14" width="54" height="22" rx="3"></rect>
                                <rect id="Charge" fill="#4A4A4A" sketch:type="MSShapeGroup" x="556" y="16" width="41" height="18" rx="2"></rect>
                                <path d="M467.379104,33.5379916 L467.379104,26.1596312 L471.005545,30.0257721 L467.379104,33.5379916 L467.379104,33.5379916 L467.379104,33.5379916 L467.379104,33.5379916 Z M471.172014,18.9762275 L467.379104,22.7113975 L467.379104,15.63497 L471.172014,18.9762275 L471.172014,18.9762275 L471.172014,18.9762275 L471.172014,18.9762275 Z M468.2902,24.5009998 L473.918261,18.9762275 L465.521027,11 L465.322659,11 L465.322659,22.0935348 L459.622827,16.2438347 L458,17.9034659 L464.85814,24.5009998 L458,31.0975339 L459.622827,32.7571651 L465.322659,26.907465 L465.322659,38 L465.685502,38 L474,30.0037769 L468.2902,24.5009998 L468.2902,24.5009998 Z" id="bluetooth" opacity="0.45" fill="#4A4A4A" sketch:type="MSShapeGroup"></path>
                            </g>
                            <g id="Icon-2" transform="translate(124.000000, 374.000000)" sketch:type="MSShapeGroup">
                                <path d="M53.516,193.852 C53.516,155.48 67.581,122.523 95.714,94.979 C123.726,67.436 157.392,53.664 196.707,53.664 C235.549,53.664 268.859,67.555 296.639,95.333 C324.535,123.113 338.484,156.482 338.484,195.441 C338.484,234.638 324.475,267.892 296.463,295.198 C268.33,322.626 234.371,336.336 194.587,336.336 C159.392,336.336 127.788,324.154 99.775,299.789 C68.936,272.836 53.516,237.524 53.516,193.852 L53.516,193.852 Z M95.008,194.294 C95.008,224.403 105.13,249.158 125.377,268.562 C145.503,287.967 168.749,297.67 195.118,297.67 C223.721,297.67 247.848,287.791 267.508,268.033 C287.162,248.044 296.992,223.697 296.992,195 C296.992,165.953 287.281,141.61 267.859,121.968 C248.555,102.21 224.66,92.331 196.176,92.331 C167.808,92.331 143.854,102.21 124.317,121.968 C104.776,141.491 95.008,165.601 95.008,194.294 L95.008,194.294 Z" id="Fill-1" fill="#9B9B9B"></path>
                                <path id="Fill-2" fill="#CCCCCC"></path>
                                <path id="Fill-3" fill="#CCCCCC"></path>
                                <path d="M95.201,187.401 C95.072,189.669 95.008,191.967 95.008,194.294 C95.008,224.403 105.13,249.158 125.377,268.562 C145.503,287.967 168.749,297.67 195.118,297.67 C223.721,297.67 247.848,287.791 267.508,268.033 C287.162,248.044 296.992,223.697 296.992,195 C296.992,165.953 287.281,141.61 267.859,121.968 C248.555,102.21 224.66,92.331 196.176,92.331 L196.707,53.664 C235.549,53.664 268.859,67.555 296.639,95.333 C324.535,123.113 338.484,156.482 338.484,195.441 C338.484,234.638 324.475,267.892 296.463,295.198 C268.33,322.626 234.371,336.336 194.587,336.336 C159.392,336.336 127.788,324.154 99.775,299.789 C68.936,272.836 53.516,237.524 53.516,193.852 C53.516,191.663 53.562,189.49 53.652,187.335 L95.201,187.401" id="Fill-4" fill="#50E3C2"></path>
                                <path d="M212,188 L212,241 L331.596,241 C325.039,261 312.42,279.327 296.464,295.573 C269.396,322.794 234.177,336.541 194.802,336.541 C158.452,336.541 124.136,322.967 99.776,299.883 C71.732,273.309 53.517,235.513 53.517,194.054 C53.517,154.537 70.31,121.276 97.258,94.395 C124.152,67.177 157.62,53.561 196.707,53.561 C235.962,53.561 268.416,67.168 294.975,94.386 L334.628,57.713 C296.391,19.428 250.473,0.282 196.97,0.282 C142.836,0.282 96.457,19.256 57.832,57.203 C19.085,95.149 -0.287,140.559 -0.287,193.432 C-0.287,253.602 20.965,302.207 63.417,339.353 C102.042,372.914 145.574,389.719 194.063,389.719 C248.873,389.719 295.651,370.807 334.398,333.027 C372.973,295.424 392.287,249.942 392.287,195.93 C392.287,193.155 392.235,190 392.133,188 L212,188 Z" id="Fill-5" fill="#4A4A4A"></path>
                            </g>
                        </g>
                        <g id="Status-Bar-White" transform="translate(14.000000, 14.000000)" sketch:type="MSShapeGroup">
                            <g id="Signal-&amp;-Carrier" transform="translate(0.000000, 4.000000)">
                                <circle id="Oval-1" fill="#4A4A4A" cx="7" cy="7" r="7"></circle>
                                <circle id="Oval-1-copy" fill="#4A4A4A" cx="24" cy="7" r="7"></circle>
                                <circle id="Oval-1-copy-2" fill="#4A4A4A" cx="41" cy="7" r="7"></circle>
                                <circle id="Oval-1-copy-3" stroke="#4A4A4A" cx="58" cy="7" r="7"></circle>
                                <circle id="Oval-1-copy-4" stroke="#4A4A4A" cx="75" cy="7" r="7"></circle>
                            </g>
                            <path d="M598,11 C598,13.5446801 596.696145,15.6498642 595,16 L595,6 C596.696145,6.35013578 598,8.45531985 598,11 Z" id="+" fill="#FFFFFF"></path>
                            <path d="M613,0 L604,12 L609,12 L606,21 L616,9 L611,9 L613,0" id="power" fill="#4A4A4A"></path>
                        </g>
                    </g>
                </g>
            </g>
        </g>
    </g>
</svg>