<?xml version="1.0" encoding="UTF-8" standalone="no"?>
<svg width="640px" height="1140px" viewBox="0 0 640 1140" version="1.1" xmlns="http://www.w3.org/2000/svg" xmlns:xlink="http://www.w3.org/1999/xlink" xmlns:sketch="http://www.bohemiancoding.com/sketch/ns">
    <!-- Generator: Sketch 3.0.4 (8054) - http://www.bohemiancoding.com/sketch -->
    <title>Artboard 4gyro</title>
    <desc>Created with Sketch.</desc>
    <defs>
        <path id="path-1" d="M60.6978125,54.159375 L105.158438,54.159375 L105.158438,57.7134375 C105.158438,65.7972279 104.206051,72.9517397 102.30125,79.1771875 C100.442907,84.9380496 97.3070012,90.3271624 92.8934375,95.3446875 C82.9048459,106.58766 70.1986188,112.209063 54.774375,112.209063 C39.7217997,112.209063 26.8297412,106.773492 16.0978125,95.9021875 C5.36588384,84.9844246 0,71.8833056 0,56.5984375 C0,40.9883594 5.45879958,27.7478669 16.3765625,16.8765625 C27.2943254,5.95879958 40.5812759,0.5 56.2378125,0.5 C64.6468129,0.5 72.4981927,2.21894114 79.7921875,5.656875 C86.7609723,9.09480886 93.613508,14.6697531 100.35,22.381875 L88.781875,33.4621875 C79.9547475,21.7081704 69.1997509,15.83125 56.5165625,15.83125 C45.1342139,15.83125 35.5871219,19.7569399 27.875,27.6084375 C20.1628781,35.3205594 16.306875,44.9837961 16.306875,56.5984375 C16.306875,68.5847474 20.6042279,78.4570445 29.1990625,86.215625 C37.2363944,93.4167027 45.9472447,97.0171875 55.331875,97.0171875 C63.3227483,97.0171875 70.500489,94.3226311 76.8653125,88.9334375 C83.230136,83.4977853 86.784163,76.9936837 87.5275,69.4209375 L60.6978125,69.4209375 L60.6978125,54.159375 Z"></path>
        <path d="M34.7653125,63.7065625 L-0.3571875,2.590625 L18.3190625,2.590625 L42.91875,45.5878125 L67.588125,2.590625 L86.264375,2.590625 L51.0025,63.7065625 L51.0025,110.188125 L34.7653125,110.188125 L34.7653125,63.7065625 Z M168.425938,110.188125 L148.565,110.188125 L117.832813,66.145625 L114.905938,66.145625 L114.905938,110.188125 L98.66875,110.188125 L98.66875,2.590625 L117.693438,2.590625 C131.909759,2.590625 142.176948,5.26195245 148.495313,10.6046875 C155.464097,16.5513839 158.948438,24.4027637 158.948438,34.1590625 C158.948438,41.7782673 156.764918,48.3288268 152.397813,53.8109375 C148.030707,59.2930482 142.269932,62.8006173 135.115313,64.33375 L168.425938,110.188125 Z M114.905937,51.9990625 L120.062812,51.9990625 C135.440598,51.9990625 143.129375,46.1221421 143.129375,34.368125 C143.129375,23.3574449 135.649658,17.8521875 120.69,17.8521875 L114.905937,17.8521875 L114.905937,51.9990625 Z M193.44375,16.8765625 C204.500889,6.00525814 217.787839,0.5696875 233.305,0.5696875 C248.636327,0.5696875 261.783904,6.05171601 272.748125,17.0159375 C283.758805,27.980159 289.264062,41.1509648 289.264062,56.52875 C289.264062,71.9994524 283.735576,85.1238003 272.678437,95.9021875 C261.57484,106.727033 248.171745,112.139375 232.46875,112.139375 C218.577639,112.139375 206.103701,107.330986 195.046562,97.7140625 C182.874418,87.075051 176.788437,73.1376903 176.788437,55.9015625 C176.788437,40.7560701 182.340153,27.7478669 193.44375,16.8765625 Z M193.165,56.110625 C193.165,68.0040178 197.160377,77.7833992 205.15125,85.4490625 C213.095665,93.1147258 222.271094,96.9475 232.677813,96.9475 C243.967244,96.9475 253.491107,93.045039 261.249688,85.24 C269.008268,77.3420438 272.8875,67.725265 272.8875,56.389375 C272.8875,44.9141093 269.054726,35.2973305 261.389063,27.53875 C253.769858,19.733711 244.33891,15.83125 233.095938,15.83125 C221.899423,15.83125 212.445247,19.733711 204.733125,27.53875 C197.021003,35.2508719 193.165,44.774735 193.165,56.110625 Z" id="path-3"></path>
    </defs>
    <g id="Page-1" stroke="none" stroke-width="1" fill="none" fill-rule="evenodd" sketch:type="MSPage">
        <g id="Artboard-4" sketch:type="MSArtboardGroup">
            <g id="iPhone-5S-(black)-5" sketch:type="MSLayerGroup" transform="translate(0.000000, -3.000000)">
                <g id="Screens">
                    <g id="Lock-Screen">
                        <g id="Not-linen">
                            <g id="Group">
                                <rect id="100%-black" stroke="#4A4A4A" sketch:type="MSShapeGroup" x="0" y="0" width="640" height="1136"></rect>
                                <text id="VIRGIN" fill="#4A4A4A" sketch:type="MSTextLayer" font-family="Helvetica Neue" font-size="28" font-weight="normal">
                                    <tspan x="102" y="34" fill="#FFFFFF">VIRGIN</tspan>
                                </text>
                                <path d="M224.489025,17.0556712 C229.500104,17.0556712 234.067017,18.9612055 237.568703,22.0858082 L240,19.3149589 C235.852722,15.5985753 230.436211,13 224.489025,13 C218.550877,13 213.142113,15.5906849 209,19.2952329 L211.426132,22.0700274 C214.925236,18.9546301 219.484402,17.0556712 224.489025,17.0556712 Z M224.489025,25.0539178 C227.492315,25.0539178 230.236078,26.1796164 232.352326,28.033863 L234.924362,25.1012603 C232.125078,22.6210411 228.483944,21.0008767 224.489025,21.0008767 C220.501853,21.0008767 216.863301,22.6170959 214.0666,25.0894247 L216.634762,28.0259726 C218.749719,26.1756712 221.489608,25.0539178 224.489025,25.0539178 Z M229.779,30.9664658 C228.347078,29.7395068 226.50327,28.8899726 224.487734,28.8899726 C222.476071,28.8899726 220.634845,29.7381918 219.202924,30.9598904 L224.487734,37 L229.779,30.9664658 L229.779,30.9664658 Z" id="Wifi" fill="#4A4A4A" sketch:type="MSShapeGroup"></path>
                                <text id="82%" fill="#4A4A4A" sketch:type="MSTextLayer" font-family="Helvetica Neue" font-size="28" font-weight="260">
                                    <tspan x="489" y="34" fill="#FFFFFF">82%</tspan>
                                </text>
                                <rect id="Battery" stroke="#4A4A4A" sketch:type="MSShapeGroup" x="554" y="14" width="54" height="22" rx="3"></rect>
                                <rect id="Charge" fill="#4A4A4A" sketch:type="MSShapeGroup" x="556" y="16" width="41" height="18" rx="2"></rect>
                                <path d="M467.379104,33.5379916 L467.379104,26.1596312 L471.005545,30.0257721 L467.379104,33.5379916 L467.379104,33.5379916 L467.379104,33.5379916 L467.379104,33.5379916 Z M471.172014,18.9762275 L467.379104,22.7113975 L467.379104,15.63497 L471.172014,18.9762275 L471.172014,18.9762275 L471.172014,18.9762275 L471.172014,18.9762275 Z M468.2902,24.5009998 L473.918261,18.9762275 L465.521027,11 L465.322659,11 L465.322659,22.0935348 L459.622827,16.2438347 L458,17.9034659 L464.85814,24.5009998 L458,31.0975339 L459.622827,32.7571651 L465.322659,26.907465 L465.322659,38 L465.685502,38 L474,30.0037769 L468.2902,24.5009998 L468.2902,24.5009998 Z" id="bluetooth" opacity="0.45" fill="#4A4A4A" sketch:type="MSShapeGroup"></path>
                            </g>
                            <g id="GYRO-+-Rectangle-10-+-GYRO-+-Rectangle-10-+-Line-2-+-Group-2" transform="translate(1.000000, 116.000000)">
                                <g id="GYRO-+-Rectangle-10-+-GYRO-+-Rectangle-10" transform="translate(120.000000, 0.000000)">
                                    <g id="GYRO-+-Rectangle-10">
                                        <mask id="mask-2" sketch:name="GYRO" fill="white">
                                            <use xlink:href="#path-1"></use>
                                        </mask>
                                        <use id="GYRO" fill="#4A4A4A" sketch:type="MSShapeGroup" xlink:href="#path-1"></use>
                                    </g>
                                    <g id="GYRO-+-Rectangle-9" transform="translate(110.000000, 0.000000)">
                                        <mask id="mask-4" sketch:name="GYRO" fill="white">
                                            <use xlink:href="#path-3"></use>
                                        </mask>
                                        <use id="GYRO" fill="#50E3C2" sketch:type="MSShapeGroup" xlink:href="#path-3"></use>
                                        <rect id="Rectangle-8" fill="#9B9B9B" sketch:type="MSShapeGroup" mask="url(#mask-4)" x="175" y="-13" width="57" height="71"></rect>
                                    </g>
                                </g>
                                <path d="M0.5,708.5 L637.5,708.5" id="Line-2" stroke="#4A4A4A" stroke-width="3" stroke-linecap="square" sketch:type="MSShapeGroup"></path>
                                <g id="Group-2" transform="translate(57.000000, 780.000000)">
                                    <g id="Twitter" transform="translate(202.000000, 0.000000)" sketch:type="MSShapeGroup">
                                        <path d="M0,59.5431428 C0,26.6583714 26.6968951,0 59.6291878,0 C92.5614805,0 119.258376,26.6583714 119.258376,59.5431428 C119.258376,92.4279142 92.5614805,119.086286 59.6291878,119.086286 C26.6968951,119.086286 0,92.4279142 0,59.5431428 Z" fill="#4099FF"></path>
                                        <path d="M58.1533413,47.4121754 L58.2782889,49.4725025 L56.195829,49.2202175 C48.615675,48.2531252 41.9934526,44.9734209 36.3708109,39.4651995 L33.6219639,36.7321126 L32.9139275,38.7503922 C31.4145564,43.2494738 32.372488,48.0008403 35.4961778,51.1964496 C37.1621457,52.9624442 36.7873029,53.2147292 33.9135083,52.1635419 C32.9139275,51.827162 32.0392944,51.574877 31.955996,51.7010195 C31.6644516,51.9953519 32.6640323,55.8216736 33.4553671,57.3353833 C34.5382462,59.4377579 36.7456537,61.498085 39.1613072,62.7174622 L41.2021178,63.6845545 L38.7864644,63.726602 C36.4541093,63.726602 36.3708109,63.7686495 36.6207061,64.6516468 C37.4536901,67.3847337 40.7439767,70.2860106 44.4091061,71.5474354 L46.9913563,72.4304327 L44.7422996,73.7759524 C41.4103638,75.710137 37.4953393,76.8033718 33.5803147,76.8874668 C31.7061008,76.9295143 30.1650805,77.0977042 30.1650805,77.2238467 C30.1650805,77.6443216 35.2462826,79.9989811 38.2033756,80.9240259 C47.0746547,83.6571129 57.6119017,82.4797831 65.5252492,77.8125116 C71.1478909,74.4907598 76.7705326,67.8893036 79.394432,61.498085 C80.8105048,58.0922382 82.2265775,51.8692095 82.2265775,48.8838376 C82.2265775,46.949653 82.3515251,46.697368 84.6838801,44.384756 C86.0583036,43.0392363 87.3494288,41.5675741 87.599324,41.1470992 C88.0158159,40.3481969 87.9741667,40.3481969 85.8500577,41.0630042 C82.3098759,42.3244289 81.8100855,42.156239 83.5593518,40.2641019 C84.8504769,38.9185822 86.3914972,36.4798277 86.3914972,35.7650203 C86.3914972,35.6388778 85.7667593,35.8491153 85.0587229,36.2275427 C84.3090374,36.6480176 82.6430694,37.27873 81.3935935,37.6571574 L79.1445368,38.3719648 L77.1037262,36.9843976 C75.9791978,36.2275427 74.3965283,35.3865929 73.5635444,35.1343079 C71.4394353,34.5456431 68.1907979,34.629738 66.2749348,35.3024979 C61.0687851,37.194635 57.7784985,42.072144 58.1533413,47.4121754 Z" id="Path" fill="#FFFFFF"></path>
                                    </g>
                                    <g id="Facebook" transform="translate(5.000000, 0.000000)" sketch:type="MSShapeGroup">
                                        <path d="M0.226585177,59.5431428 C0.226585177,26.6583714 26.9234803,0 59.855773,0 C92.7880657,0 119.484961,26.6583714 119.484961,59.5431428 C119.484961,92.4279142 92.7880657,119.086286 59.855773,119.086286 C26.9234803,119.086286 0.226585177,92.4279142 0.226585177,59.5431428 Z" fill="#3B5998"></path>
                                        <path d="M64.8419165,91.9339634 L64.8419165,59.53935 L73.7842465,59.53935 L74.9692983,48.3759869 L64.8419165,48.3759869 L64.8571094,42.7886162 C64.8571094,39.8770391 65.1337481,38.3169496 69.3156137,38.3169496 L74.9059943,38.3169496 L74.9059943,27.1523222 L65.9623981,27.1523222 C55.2197009,27.1523222 51.43855,32.5677544 51.43855,41.6748084 L51.43855,48.3772511 L44.7422476,48.3772511 L44.7422476,59.5406143 L51.43855,59.5406143 L51.43855,91.9339634 L64.8419165,91.9339634 Z" id="Path" fill="#FFFFFF"></path>
                                    </g>
                                    <g id="Mail" transform="translate(398.000000, 0.000000)" sketch:type="MSShapeGroup">
                                        <path d="M0.453170355,59.5431428 C0.453170355,26.6583714 27.1500655,0 60.0823582,0 C93.0146509,0 119.711546,26.6583714 119.711546,59.5431428 C119.711546,92.4279142 93.0146509,119.086286 60.0823582,119.086286 C27.1500655,119.086286 0.453170355,92.4279142 0.453170355,59.5431428 Z" fill="#D8D8D8"></path>
                                        <path d="M70.7023341,62.7949935 L95.2690285,80.5349318 L95.2690285,39.6954285 L70.7023341,62.7949935 Z M27.7868,39.6954285 L27.7868,80.5349318 L52.3529672,62.7925096 L27.7868,39.6954285 Z M61.5279142,71.4209857 L55.6626278,65.9073554 L27.7868,83.3603999 L95.2690285,83.3603999 L67.3925417,65.9073554 L61.5279142,71.4209857 Z M93.2445616,39.6954285 L29.8112668,39.6954285 L61.5279142,64.4156186 L93.2445616,39.6954285 Z" id="Shape" fill="#4A4A4A"></path>
                                    </g>
                                    <text id="facebook" sketch:type="MSTextLayer" font-family="Futura" font-size="30" font-weight="420" fill="#4A4A4A">
                                        <tspan x="0" y="169">facebook</tspan>
                                    </text>
                                    <text id="Twitter" sketch:type="MSTextLayer" font-family="Futura" font-size="30" font-weight="420" fill="#4A4A4A">
                                        <tspan x="217" y="169">Twitter</tspan>
                                    </text>
                                    <text id="Email" sketch:type="MSTextLayer" font-family="Futura" font-size="30" font-weight="420" fill="#4A4A4A">
                                        <tspan x="421" y="169">Email</tspan>
                                    </text>
                                </g>
                            </g>
                            <text id="Track-food,-forget-w" sketch:type="MSTextLayer" font-family="Futura" font-size="48" font-weight="420" fill="#4A4A4A">
                                <tspan x="54" y="581">Track food, forget waste</tspan>
                            </text>
                            <path d="M0.5,274.5 L638.5,274.5" id="Line-4" stroke="#4A4A4A" stroke-width="3" stroke-linecap="square" sketch:type="MSShapeGroup"></path>
                        </g>
                        <g id="Status-Bar-White" transform="translate(14.000000, 14.000000)" sketch:type="MSShapeGroup">
                            <g id="Signal-&amp;-Carrier" transform="translate(0.000000, 4.000000)">
                                <circle id="Oval-1" fill="#4A4A4A" cx="7" cy="7" r="7"></circle>
                                <circle id="Oval-1-copy" fill="#4A4A4A" cx="24" cy="7" r="7"></circle>
                                <circle id="Oval-1-copy-2" fill="#4A4A4A" cx="41" cy="7" r="7"></circle>
                                <circle id="Oval-1-copy-3" stroke="#4A4A4A" cx="58" cy="7" r="7"></circle>
                                <circle id="Oval-1-copy-4" stroke="#4A4A4A" cx="75" cy="7" r="7"></circle>
                            </g>
                            <path d="M598,11 C598,13.5446801 596.696145,15.6498642 595,16 L595,6 C596.696145,6.35013578 598,8.45531985 598,11 Z" id="+" fill="#FFFFFF"></path>
                            <path d="M613,0 L604,12 L609,12 L606,21 L616,9 L611,9 L613,0" id="power" fill="#4A4A4A"></path>
                        </g>
                    </g>
                </g>
            </g>
        </g>
    </g>
</svg>